<svg width="100" height="100" viewBox="0 0 100 100" fill="none" xmlns="http://www.w3.org/2000/svg">
<rect width="100" height="100" rx="50" fill="#00539F"/>
<path d="M50 15L60 25L50 35L40 25L50 15Z" fill="#FDB913"/>
<path d="M25 37.5C15 50 25 62.5 25 62.5L35 62.5C25 50 35 37.5 35 37.5L25 37.5Z" fill="#FDB913"/>
<path d="M75 37.5C85 50 75 62.5 75 62.5L65 62.5C75 50 65 37.5 65 37.5L75 37.5Z" fill="#FDB913"/>
<path d="M30 67L40 77H60L70 67L60 67L50 72L40 67H30Z" fill="#FDB913"/>
<circle cx="50" cy="50" r="15" stroke="#FDB913" stroke-width="5"/>
<circle cx="50" cy="50" r="10" fill="#00539F"/>
</svg>
